<svg width="80" height="63" viewBox="0 0 80 63" fill="none" xmlns="http://www.w3.org/2000/svg">
<rect width="80" height="63" rx="10" fill="white"/>
<path d="M40.2037 33.6184C39.6454 33.6184 39.11 33.3966 38.7152 33.0019C38.3205 32.6071 38.0987 32.0716 38.0987 31.5133C38.0988 30.9551 38.3206 30.4198 38.7154 30.0252C39.1102 29.6305 39.6455 29.4088 40.2037 29.4088C40.7619 29.4088 41.2973 29.6305 41.6921 30.0252C42.0868 30.4198 42.3087 30.9551 42.3088 31.5133C42.3088 32.0716 42.087 32.6071 41.6922 33.0019C41.2975 33.3966 40.762 33.6184 40.2037 33.6184ZM40.2037 28.3555C39.3664 28.3556 38.5634 28.6883 37.9713 29.2804C37.3792 29.8725 37.0465 30.6755 37.0464 31.5128C37.0465 32.3502 37.3792 33.1532 37.9713 33.7452C38.5634 34.3374 39.3664 34.67 40.2037 34.6702C41.0411 34.67 41.8441 34.3374 42.4362 33.7452C43.0283 33.1532 43.3609 32.3502 43.3611 31.5128C43.3609 30.6755 43.0283 29.8725 42.4362 29.2804C41.8441 28.6883 41.0411 28.3556 40.2037 28.3555Z" fill="#0D0D0D"/>
<path d="M45.4658 35.724C45.4658 36.0031 45.3549 36.2708 45.1576 36.4681C44.9603 36.6655 44.6926 36.7764 44.4135 36.7764H35.9938C35.7146 36.7764 35.4469 36.6655 35.2495 36.4682C35.0521 36.2709 34.9411 36.0032 34.941 35.724V27.3043C34.941 27.0251 35.0519 26.7573 35.2493 26.5598C35.4467 26.3624 35.7145 26.2515 35.9938 26.2515H44.4135C44.5518 26.2515 44.6886 26.2787 44.8164 26.3316C44.9441 26.3846 45.0601 26.4621 45.1578 26.5599C45.2555 26.6577 45.333 26.7737 45.3858 26.9014C45.4387 27.0292 45.4659 27.1661 45.4658 27.3043V35.724ZM44.4135 25.2008H35.9938C35.4354 25.2008 34.9 25.4226 34.5052 25.8173C34.1105 26.2121 33.8887 26.7476 33.8887 27.3059V35.7256C33.8888 36.2838 34.1107 36.8191 34.5054 37.2138C34.9002 37.6084 35.4355 37.8302 35.9938 37.8302H44.4135C44.9718 37.8302 45.507 37.6084 45.9018 37.2138C46.2966 36.8191 46.5185 36.2838 46.5186 35.7256V27.3043C46.5186 26.746 46.2968 26.2106 45.902 25.8158C45.5072 25.421 44.9718 25.1992 44.4135 25.1992" fill="#0D0D0D"/>
</svg>
