<svg width="80" height="63" viewBox="0 0 80 63" fill="none" xmlns="http://www.w3.org/2000/svg">
<rect width="80" height="63" rx="10" fill="white"/>
<rect width="16" height="12.2353" transform="translate(32 25.3828)" fill="white"/>
<path d="M47.2977 31.4701C47.2977 31.4337 47.2977 31.3933 47.2977 31.3459C47.2977 31.2137 47.2928 31.0651 47.2893 30.9061C47.2758 30.4503 47.2529 29.997 47.2175 29.5691C47.1853 29.0806 47.112 28.5957 46.9985 28.1194C46.895 27.7344 46.6922 27.3832 46.4106 27.1009C46.1289 26.8186 45.7781 26.6151 45.3933 26.5107C44.5216 26.3477 43.637 26.2643 42.7504 26.2613C42.1449 26.2384 41.4961 26.2239 40.8484 26.2155C40.6215 26.212 40.41 26.2105 40.2205 26.209H39.7413C39.5518 26.209 39.3423 26.212 39.1134 26.2155C38.4652 26.2239 37.8169 26.2384 37.2115 26.2613C36.3248 26.2657 35.4403 26.3491 34.5685 26.5107C34.1838 26.6149 33.8332 26.8184 33.552 27.1007C33.2707 27.3831 33.0685 27.7344 32.9657 28.1194C32.8516 28.5955 32.7783 29.0805 32.7468 29.5691C32.7114 29.997 32.6884 30.4503 32.675 30.9061C32.67 31.0651 32.6685 31.2132 32.6665 31.3459C32.6665 31.3958 32.6665 31.4337 32.6665 31.4701V31.5613C32.6665 31.5977 32.6665 31.6381 32.6665 31.6855C32.6665 31.8176 32.6715 31.9667 32.675 32.1253C32.6884 32.5811 32.7114 33.0344 32.7468 33.4623C32.7794 33.9509 32.8526 34.436 32.9657 34.9125C33.0689 35.2977 33.2715 35.649 33.5532 35.9313C33.835 36.2136 34.1859 36.4168 34.571 36.5207C35.4425 36.6841 36.3272 36.7675 37.214 36.7701C37.8204 36.7929 38.4681 36.8074 39.1159 36.8159C39.3428 36.8194 39.5543 36.8209 39.7438 36.8229H40.223C40.4125 36.8229 40.6219 36.8194 40.8508 36.8159C41.4992 36.8074 42.1474 36.7929 42.7528 36.7701C43.6395 36.7657 44.524 36.6823 45.3958 36.5207C45.781 36.4171 46.1322 36.2139 46.414 35.9317C46.6957 35.6493 46.8982 35.2978 47.0011 34.9125C47.1155 34.4361 47.1888 33.9507 47.22 33.4618C47.2554 33.0339 47.2784 32.5806 47.2918 32.1248C47.2968 31.9667 47.2983 31.8176 47.3003 31.685C47.3003 31.6351 47.3003 31.5972 47.3003 31.5608L47.2977 31.4701ZM46.1224 31.5548C46.1224 31.5887 46.1224 31.6266 46.1224 31.6705C46.1224 31.7982 46.1174 31.9388 46.1139 32.0904C46.1029 32.5243 46.08 32.9591 46.0456 33.3621C46.0185 33.7819 45.9575 34.1988 45.8631 34.6087C45.813 34.7944 45.7152 34.9636 45.5795 35.0997C45.4437 35.2358 45.2746 35.3338 45.0891 35.3842C44.3023 35.5177 43.506 35.5875 42.7079 35.5931C42.1135 35.6161 41.4732 35.6306 40.8349 35.6391C40.6115 35.642 40.4035 35.6441 40.2175 35.6441H39.7478L39.1304 35.6391C38.4921 35.6306 37.8533 35.6161 37.2574 35.5931C36.4593 35.5865 35.6631 35.5167 34.8762 35.3842C34.6907 35.3337 34.5218 35.2356 34.3861 35.0996C34.2504 34.9635 34.1527 34.7943 34.1027 34.6087C34.0077 34.1989 33.9465 33.7819 33.9197 33.3621C33.8858 32.9591 33.8638 32.5248 33.8514 32.0904C33.8464 31.9408 33.8444 31.7962 33.8429 31.6705C33.8429 31.6266 33.8429 31.5878 33.8429 31.5548V31.476C33.8429 31.4421 33.8429 31.4042 33.8429 31.3604C33.8429 31.2327 33.8479 31.0926 33.8514 30.941C33.8623 30.5061 33.8853 30.0723 33.9197 29.6688C33.9464 29.2489 34.0077 28.832 34.1027 28.4221C34.1526 28.2364 34.2503 28.0671 34.3863 27.9311C34.5222 27.7951 34.6915 27.6972 34.8772 27.6472C35.664 27.514 36.4603 27.4442 37.2583 27.4382C37.8528 27.4153 38.4931 27.4008 39.1314 27.3929C39.3548 27.3894 39.5627 27.3879 39.7488 27.3879H40.2155L40.8329 27.3929C41.4712 27.4003 42.11 27.4153 42.7059 27.4382C43.504 27.4448 44.3002 27.5147 45.0871 27.6472C45.2725 27.6979 45.4416 27.7961 45.5773 27.9322C45.7131 28.0683 45.8109 28.2376 45.861 28.4231C45.9555 28.8331 46.0166 29.25 46.0436 29.6698C46.0775 30.0733 46.0994 30.5071 46.112 30.942C46.1174 31.0916 46.1189 31.2352 46.1204 31.3614C46.1204 31.4052 46.1204 31.4451 46.1204 31.477L46.1224 31.5548ZM38.529 33.7036L42.3189 31.499L38.529 29.3272V33.7036Z" fill="#0D0D0D"/>
</svg>
